<?xml version="1.0" encoding="utf-8"?>
<!-- Generator: Adobe Illustrator 20.1.0, SVG Export Plug-In . SVG Version: 6.00 Build 0)  -->
<svg version="1.1" id="圖層_1" xmlns="http://www.w3.org/2000/svg" xmlns:xlink="http://www.w3.org/1999/xlink" x="0px" y="0px"
	 viewBox="0 0 292.8 91.2" style="enable-background:new 0 0 292.8 91.2;" xml:space="preserve">
<style type="text/css">
	.st0{fill:#444444;}
	.st1{fill:#FF6200;}
	.st2{fill:#993A00;}
	.st3{fill:#F6AA00;}
</style>
<path class="st0" d="M228.6,25.8v5.4h25.7v-5.4H228.6 M228.6,16v5.4h25.7V16H228.6 M242.9,0h-7.6l2.2,6.1h-10.6v5.6h28.9V6.1h-10.2
	c-0.2-0.4-0.3-0.7-0.5-1.1c-0.1-0.3-0.2-0.5-0.4-0.8C243.9,2.6,243.3,1.2,242.9,0 M289.4,76.7h-3.3v14.5h3.3V76.7 M270.1,88.6
	c-0.4-0.1-0.8-0.2-1.2-0.4l-0.8,2.2c0.4,0.2,0.9,0.4,1.6,0.5c0.7,0.2,1.3,0.2,2.1,0.2c0.7,0,1.3-0.1,1.9-0.2c0.6-0.2,1-0.5,1.5-0.8
	c0.8-0.7,1.2-1.8,1.2-3.4v-10h-3.2v10c0,0.8-0.1,1.3-0.4,1.6c-0.3,0.3-0.7,0.5-1.2,0.5C271,88.8,270.5,88.7,270.1,88.6 M259.8,91.2
	V76.7h-3.3v14.5H259.8 M25.3,91.2l1.2-3.2h6.2l1.2,3.2h3.4l-6.2-14.5H28l-6.2,14.5H25.3 M29.6,79.4L29.6,79.4l2.2,5.9h-4.2
	L29.6,79.4 M157.1,76.7h-3.3l-6.1,14.5h3.4l1.2-3.2h6.2l1.2,3.2h3.4L157.1,76.7 M155.4,79.7L155.4,79.7l2.1,5.9h-4.2L155.4,79.7
	 M194.2,88.8V76.6l-3.3,0.1v14.5h10.8v-2.4L194.2,88.8 M171.4,76.7v14.5h10.8v-2.4h-7.5V76.6L171.4,76.7 M69.6,82.6v1.8l6.2,6.8h3.8
	l-7.2-7.7l7-6.8h-3.7L69.6,82.6 M65.5,76.7v14.5h3.3V76.7H65.5 M54.8,79.6l0.8-2.1c-0.7-0.3-1.4-0.5-2.2-0.7
	c-0.8-0.2-1.6-0.2-2.6-0.2c-1,0-1.9,0.1-2.6,0.3c-0.7,0.2-1.3,0.5-1.8,0.8c-0.5,0.3-0.8,0.7-1.1,1.2S45,80,45,80.5
	c0,0.7,0.2,1.3,0.5,1.8s0.7,0.9,1.2,1.2c0.4,0.4,1,0.6,1.5,0.8l2.8,0.9l1.1,0.4c0.3,0.2,0.6,0.4,0.8,0.6s0.3,0.5,0.3,0.8
	s-0.1,0.6-0.2,0.8c-0.2,0.3-0.4,0.4-0.7,0.6c-0.6,0.3-1.4,0.5-2.4,0.5c-0.7,0-1.4-0.1-2.2-0.3c-0.7-0.2-1.4-0.4-2-0.7l-0.8,2.2
	c0.7,0.3,1.4,0.6,2.3,0.8c0.9,0.2,1.8,0.3,2.9,0.3c0.9,0,1.7-0.1,2.4-0.2s1.4-0.4,1.9-0.8c0.5-0.4,1-0.8,1.3-1.3
	c0.3-0.5,0.5-1.1,0.5-1.8c0-0.7-0.2-1.3-0.5-1.7c-0.3-0.5-0.7-0.9-1.2-1.2c-0.5-0.4-1.1-0.6-1.6-0.8l-2.9-0.9l-1-0.4
	c-0.3-0.2-0.5-0.4-0.7-0.6c-0.2-0.2-0.3-0.5-0.3-0.8c0-0.4,0.2-0.8,0.7-1.1s1.2-0.4,2.2-0.4c0.5,0,1.2,0.1,1.8,0.2
	C53.5,79.2,54.1,79.4,54.8,79.6 M127.1,76.7v14.5h6.9c1.1,0,2.1-0.1,2.9-0.4c0.8-0.2,1.5-0.5,2-0.9c0.5-0.4,0.9-0.9,1.1-1.4
	c0.2-0.5,0.4-1.1,0.4-1.7c0-1-0.3-1.7-0.9-2.3s-1.3-0.9-2.1-1.1l0.8-0.4l0.8-0.6c0.2-0.3,0.4-0.6,0.5-0.9s0.2-0.6,0.2-1
	c0-0.6-0.1-1.1-0.4-1.6c-0.2-0.5-0.5-0.9-1-1.2c-0.9-0.7-2.3-1.1-4.2-1.1L127.1,76.7 M135.8,79.4c0.4,0.3,0.6,0.7,0.6,1.3
	c0,0.3-0.1,0.6-0.1,0.8c-0.1,0.2-0.3,0.4-0.5,0.6c-0.5,0.3-1.1,0.4-1.8,0.4h-3.8V79h3.8C134.8,79,135.4,79.1,135.8,79.4 M133.8,84.8
	c1.1,0,1.9,0.2,2.4,0.5c0.3,0.2,0.5,0.4,0.6,0.6c0.2,0.2,0.2,0.5,0.2,0.9c0,0.6-0.3,1.1-0.9,1.6c-0.3,0.2-0.6,0.3-1.1,0.4
	c-0.4,0.1-0.9,0.1-1.4,0.1h-3.6v-4.1H133.8 M106,76.7v2.4l4.9-0.1v12.2h3.3V79l4.9,0.1v-2.4L106,76.7 M98.5,79v-2.4H87.4v14.5h11.2
	v-2.4h-8v-3.9H98v-2.4h-7.4V79L98.5,79 M153.4,17.8v4.9h23.5v3.6h-23.5v5.2h23.5v4.2h-23.5v5.1h23.5v3.9h-23.5v5.2h23.5v4.2h-23.5
	v5.2h23.5v5.4h7.2v-5.4h24.2v-5.2h-24.2v-4.2h24.2v-5.2h-24.2v-3.9h17.2c0.8,0,1.5-0.1,2.2-0.2c1.1-0.3,2-0.9,2.8-1.6
	c1.2-1.1,1.8-2.4,2-3.9v-3.5h4.3v-5.2h-4.4v-2.9c-0.2-1.5-0.8-2.8-2-3.9c-0.7-0.7-1.6-1.3-2.8-1.6c-0.7-0.2-1.4-0.2-2.2-0.2
	L153.4,17.8 M198.4,22.8L198.4,22.8l2.7,0.1c0.6,0.2,1,0.7,1,1.6v1.9h-17.9v-3.6h8.8v0.1h3.6v-0.1H198.4 M184.2,35.8v-4.2h17.9v2.6
	c0,0.9-0.3,1.4-1,1.6H184.2 M198.5,0h-7.9c-0.5,1.2-1.1,2.4-1.7,3.6h-23.4l1.6-3.6h-8.3c-0.5,1.4-1.2,2.9-2,4.3
	c-0.6,1.1-1.2,2.2-1.9,3.4c-0.1,0.1-0.2,0.3-0.3,0.4c-0.4,0.5-0.8,1.1-1.1,1.6c-1.3,1.8-2.7,3.6-4.3,5.4c-0.1,0.1-0.2,0.3-0.4,0.4
	l0.1-0.1c0.1,0,0.1-0.1,0.2-0.1c2.1-0.8,4-1.7,5.8-2.6c0.4-0.3,0.9-0.5,1.3-0.8l1.6,3.5c1.4-1.4,2.8-3.4,4.2-5.8
	c0.2-0.4,0.4-0.8,0.6-1.2h3.5c0.2,0.4,0.4,0.8,0.5,1.2c0.7,1.5,1.6,3.1,2.6,4.9h7.8v-0.2h0.5c-1.3-1.7-2.2-3.3-2.9-4.6
	c-0.2-0.4-0.4-0.8-0.6-1.2h11.6c-0.3,0.4-0.5,0.8-0.9,1.2c-1.2,1.6-2.4,3.1-3.8,4.6h9.4c1.1-1.4,2.2-2.9,3.2-4.6
	c0.2-0.4,0.5-0.8,0.7-1.2h3.6c0.1,0.4,0.2,0.8,0.4,1.2c0.7,1.8,1.7,3.7,3.1,5.8h8.6c-1.5-2-2.7-4-3.6-5.8c-0.2-0.4-0.4-0.7-0.5-1.1
	c0,0-0.1-0.1-0.1-0.1h5.9V3.6H197L198.5,0 M288.8,0H259v5.4h22.3v19.2c0,0.8-0.3,1.2-0.9,1.4c-0.2,0.1-0.5,0.1-0.8,0.1h-11.4
	c-2,0-3.6,0.4-4.9,1.4c-1.5,1.1-2.3,2.6-2.3,4.6v24.6c0,2.4,0.6,4.4,1.8,5.8c0.7,0.8,1.5,1.4,2.4,1.8c0.9,0.4,1.8,0.6,2.9,0.6H290
	l2.8-5.8h-22.7c-1.2,0-1.8-0.7-1.8-2V33.5c0-1.1,0.6-1.6,1.9-1.6h10.4c1.6,0,2.9-0.2,4-0.6c1-0.4,1.9-0.9,2.6-1.6
	c1.1-1.1,1.6-2.7,1.6-4.7V5.4h0V0z"/>
<path class="st1" d="M13.8,80.6c0-0.6-0.1-1.1-0.3-1.6c-0.2-0.5-0.5-0.9-1-1.2c-0.9-0.7-2.3-1.1-4.2-1.1h-7v14.5h6.8
	c1.1,0,2-0.1,2.8-0.4c0.8-0.2,1.5-0.5,2-0.9c0.5-0.4,0.9-0.9,1.2-1.4c0.2-0.5,0.3-1.1,0.3-1.7c0-1-0.3-1.7-0.8-2.3
	c-0.6-0.6-1.3-0.9-2.1-1.1l0.8-0.4l0.8-0.6c0.2-0.3,0.4-0.6,0.5-0.9C13.7,81.3,13.8,80.9,13.8,80.6 M10,79.4
	c0.4,0.3,0.7,0.7,0.7,1.3c0,0.3,0,0.6-0.2,0.8s-0.3,0.4-0.5,0.6c-0.5,0.3-1,0.4-1.8,0.4H4.5V79h3.8C8.9,79,9.5,79.1,10,79.4
	 M11.1,85.9c0.2,0.2,0.2,0.5,0.2,0.9c0,0.6-0.3,1.1-0.8,1.6c-0.3,0.2-0.7,0.3-1,0.4s-0.8,0.1-1.3,0.1H4.5v-4.1H8
	c1.1,0,1.9,0.2,2.5,0.5C10.7,85.5,10.9,85.7,11.1,85.9 M246.6,79c-0.2-0.5-0.5-0.9-1-1.2c-0.9-0.7-2.3-1.1-4.2-1.1h-7v14.5h6.9
	c1.1,0,2-0.1,2.9-0.4c0.8-0.2,1.5-0.5,2-0.9c0.5-0.4,0.9-0.9,1.1-1.4c0.2-0.5,0.4-1.1,0.4-1.7c0-1-0.3-1.7-0.9-2.3
	c-0.6-0.6-1.3-0.9-2.1-1.1l0.8-0.4l0.8-0.6c0.2-0.3,0.4-0.6,0.5-0.9s0.2-0.6,0.2-1C246.9,80,246.8,79.4,246.6,79 M243.1,79.4
	c0.4,0.3,0.6,0.7,0.6,1.3c0,0.3,0,0.6-0.1,0.8s-0.3,0.4-0.5,0.6c-0.5,0.3-1,0.4-1.8,0.4h-3.8V79h3.8C242.1,79,242.7,79.1,243.1,79.4
	 M244.2,85.9c0.2,0.2,0.2,0.5,0.2,0.9c0,0.6-0.3,1.1-0.9,1.6c-0.3,0.2-0.6,0.3-1,0.4c-0.4,0.1-0.9,0.1-1.4,0.1h-3.6v-4.1h3.5
	c1.1,0,1.9,0.2,2.5,0.5C243.9,85.5,244.1,85.7,244.2,85.9 M241,44.6l-14.5-4.8v20.6l14.5,4.8c3.5-3.1,3.5-6.6,0-10.4
	C244.1,52.5,244.1,49,241,44.6z"/>
<path class="st2" d="M255.2,39.4l-0.4-0.1L241,44.6c3.1,4.4,3.1,7.9,0,10.3c3.5,3.8,3.5,7.2,0,10.4l14.4-6.2
	c0.1-0.1,0.2-0.2,0.4-0.3c2.6-2.9,2.3-6.1-0.8-9.5h0c0.1-0.1,0.2-0.2,0.4-0.4C257.8,46.6,257.8,43.4,255.2,39.4z"/>
<path class="st3" d="M241.7,35l-15.2,4.9l14.5,4.8l13.9-5.2L241.7,35z"/>
<g transform="matrix( 1, 0, 0, 1, -1.45,0) ">
	<g>
		<g id="Layer1_59_FILL">
			<path class="st1" d="M6,19.5c-1.2,1.1-1.7,2.3-1.8,3.6v15c0,1.3,0.4,2.4,1.3,3.5c1,1.2,2.3,1.8,3.9,1.8h26.2v-4.3H24.8v-2.7h5
				c1.3,0,2.4-0.4,3.3-1.1c0.9-0.8,1.4-1.7,1.4-2.7v-4c0-1.2-0.6-2.1-1.7-2.9c-1-0.6-2-0.9-2.9-0.9h-5.1v-2.7h10.3V18H10
				C8.5,18,7.2,18.5,6,19.5 M18.8,22.2v2.7h-8.5v-1c0-1.1,0.5-1.6,1.5-1.6H18.8 M28.3,31.2c0,0.6-0.3,0.9-0.9,0.9H10.3v-3h17.1
				c0.6,0,0.9,0.3,0.9,1V31.2 M18.8,36.4v2.7h-6.9c-1.1,0-1.6-0.5-1.6-1.5v-1.2H18.8 M58.2,48.1c-1.1-1.1-2.5-1.7-4.2-1.7H13.7
				c-1.7,0-3.1,0.5-4.3,1.4c-1.3,1.2-2,2.6-2,4.4v7.9H2.7v4.5h62v-4.5h-4.8v-7.9C59.8,50.7,59.3,49.3,58.2,48.1 M44.1,51h7.7
				c1.1,0,1.7,0.6,1.7,1.8v7.5h-9.3V51 M29.2,51h8.9v9.3h-8.9V51 M13.7,52.6c0-1.1,0.5-1.6,1.4-1.6h7.8v9.3h-9.3V52.6 M62.9,40.3
				v-4.5H38.4v4.5H62.9 M42.3,17.3c-0.5,2.3-1.3,4.7-2.5,7.4c-1.3,2.9-2.7,5.5-4.2,7.5h7.6l3-6.1h18.2v-4.4H47.7l1.2-4.4H42.3
				 M42.6,10.2h3.4c0.8,2.1,1.9,4.2,3.3,6.2h7.5c-1.8-2.3-3.1-4.4-4-6.2h11.5V5.8H44.9C45.4,5,45.8,4,46.2,2.6h-6.6
				c-0.4,1-0.9,2.1-1.5,3.2H16.2l1.2-3.2h-6.9C9.8,4.7,8.6,7.1,7,9.6c-1.8,2.8-3.6,5-5.4,6.8h7.9c1.6-1.8,3-3.9,4.3-6.2h3.8
				c0.8,2.3,1.9,4.4,3.2,6.2h7.2c-1.4-1.7-2.7-3.8-3.9-6.2h11.2c-1.7,2.5-3.4,4.6-5.1,6.2h8C40,14.5,41.4,12.4,42.6,10.2z"/>
		</g>
	</g>
</g>
<g transform="matrix( 1, 0, 0, 1, -1.2,0) ">
	<g>
		<g id="Layer1_60_FILL">
			<path class="st1" d="M110.4,37.8h-6.7c-0.7,2.8-1.8,5.9-3.3,9.3c-1.3,2.8-2.9,6-4.8,9.7h7C104.8,52.8,107.4,46.4,110.4,37.8
				 M96.9,10.6V5.8H74.6v4.8h7.5v13.5h0v3.4H75v4.9H82v16.9h-8.4v4.8h22.2v-4.8h-7.4V32.3h7v-4.9h-7V10.6H96.9 M96.2,21.9
				c0.2,0.4,0.4,0.8,0.6,1.2c2.6,5.5,4.7,9.5,6.3,12.2h7.3l-3.8-6.5c-1.3-2.4-2.4-4.7-3.2-6.8H96.2 M121.5,37.7l3.6,9.7
				c1.5,3.5,3,6.6,4.6,9.3h7.9c-2-2.8-3.8-5.9-5.4-9.2c-1.4-3-2.7-6.3-3.9-9.8H121.5 M122.5,35.3h7.3c1.9-2.7,4.3-7.2,7.2-13.3h-7.2
				C127,28.1,124.6,32.6,122.5,35.3 M119.2,2.5h-6.4v11.6H96.9v4.9h15.9v39.6c0,0.5-0.2,0.9-0.6,1.2c-0.4,0.4-0.8,0.5-1.2,0.5h-5.5
				l2,4.7h5.4c1.9,0,3.3-0.5,4.4-1.5c1.2-1,1.8-2.4,1.8-4.2V18.9h16.2v-4.9h-3c-1.2-2.8-2.2-6.1-3.1-10H123c0.6,3.4,1.5,6.8,2.6,10
				h-6.4V2.5z"/>
		</g>
	</g>
</g>
</svg>
